<svg width="200" height="200" viewBox="0 0 200 200" xmlns="http://www.w3.org/2000/svg" role="img" aria-label="mc-pulse logo">
  <defs>
    <linearGradient id="bg" x1="0" y1="0" x2="1" y2="1">
      <stop stop-color="#0f1221" offset="0%"/>
      <stop stop-color="#121a32" offset="100%"/>
    </linearGradient>
  </defs>
  <rect x="10" y="10" width="180" height="180" rx="28" fill="url(#bg)" stroke="#ff8f5c" stroke-width="6"/>
  <rect x="34" y="42" width="18" height="18" rx="4" fill="#ff8f5c"/>
  <rect x="62" y="42" width="18" height="18" rx="4" fill="#ffb18d"/>
  <rect x="90" y="42" width="18" height="18" rx="4" fill="#ff8f5c"/>
  <rect x="56" y="70" width="18" height="18" rx="4" fill="#ffb18d"/>
  <rect x="118" y="42" width="18" height="18" rx="4" fill="#ff8f5c"/>
  <rect x="146" y="42" width="18" height="18" rx="4" fill="#ffb18d"/>
  <path d="M36 126h32l10-24 12 44 12-40 10 28h20l12-22h28" fill="none" stroke="#ff8f5c" stroke-width="9" stroke-linecap="round" stroke-linejoin="round"/>
  <circle cx="150" cy="134" r="12" fill="#0f1221" stroke="#ff8f5c" stroke-width="6"/>
  <circle cx="150" cy="134" r="4" fill="#ffb18d"/>
  <rect x="36" y="144" width="40" height="10" rx="5" fill="#1a2036"/>
  <rect x="36" y="160" width="70" height="10" rx="5" fill="#1a2036"/>
</svg>
